<svg width="16" height="16" viewBox="0 0 16 16" fill="none" xmlns="http://www.w3.org/2000/svg">
<path fill-rule="evenodd" clip-rule="evenodd" d="M12.5601 6.57752C12.4252 6.70278 12.2143 6.69497 12.089 6.56007L7.99996 2.15646L3.91089 6.56007C3.78562 6.69497 3.57471 6.70278 3.43981 6.57752C3.3049 6.45225 3.29709 6.24134 3.42236 6.10643L7.75569 1.43977C7.81876 1.37185 7.90727 1.33325 7.99996 1.33325C8.09265 1.33325 8.18115 1.37185 8.24422 1.43977L12.5776 6.10643C12.7028 6.24134 12.695 6.45225 12.5601 6.57752Z" fill="#8F8D94" stroke="#8F8D94" stroke-width="0.5" stroke-linecap="round" stroke-linejoin="round"/>
<path fill-rule="evenodd" clip-rule="evenodd" d="M8.00004 2C8.18414 2 8.33337 2.14924 8.33337 2.33333L8.33337 14.3333C8.33337 14.5174 8.18414 14.6667 8.00004 14.6667C7.81595 14.6667 7.66671 14.5174 7.66671 14.3333L7.66671 2.33333C7.66671 2.14924 7.81595 2 8.00004 2Z" fill="#8F8D94" stroke="#8F8D94" stroke-width="0.5" stroke-linecap="round" stroke-linejoin="round"/>
</svg>
