<svg width="16" height="16" viewBox="0 0 16 16" fill="none" xmlns="http://www.w3.org/2000/svg">
<path fill-rule="evenodd" clip-rule="evenodd" d="M12.5601 9.42248C12.4252 9.29722 12.2143 9.30503 12.089 9.43993L7.99996 13.8435L3.91089 9.43993C3.78562 9.30503 3.57471 9.29722 3.43981 9.42248C3.3049 9.54775 3.29709 9.75866 3.42236 9.89357L7.75569 14.5602C7.81876 14.6282 7.90727 14.6667 7.99996 14.6667C8.09265 14.6667 8.18115 14.6282 8.24422 14.5602L12.5776 9.89357C12.7028 9.75866 12.695 9.54775 12.5601 9.42248Z" fill="#8F8D94" stroke="#8F8D94" stroke-width="0.5" stroke-linecap="round" stroke-linejoin="round"/>
<path fill-rule="evenodd" clip-rule="evenodd" d="M8.00004 14C8.18414 14 8.33337 13.8508 8.33337 13.6667L8.33337 1.66667C8.33337 1.48257 8.18414 1.33333 8.00004 1.33333C7.81595 1.33333 7.66671 1.48257 7.66671 1.66667L7.66671 13.6667C7.66671 13.8508 7.81595 14 8.00004 14Z" fill="#8F8D94" stroke="#8F8D94" stroke-width="0.5" stroke-linecap="round" stroke-linejoin="round"/>
</svg>
