<svg width="22" height="22" viewBox="0 0 22 22" fill="none" xmlns="http://www.w3.org/2000/svg">
<path d="M7.27157 20.3337H14.6049C18.2899 20.3337 18.9499 18.8578 19.1424 17.0612L19.8299 9.72783C20.0774 7.49116 19.4357 5.66699 15.5216 5.66699H6.3549C2.44074 5.66699 1.79907 7.49116 2.04657 9.72783L2.73407 17.0612C2.92657 18.8578 3.58657 20.3337 7.27157 20.3337Z" stroke="#CEC9D9" stroke-width="1.2" stroke-miterlimit="10" stroke-linecap="round" stroke-linejoin="round"/>
<path d="M7.27148 5.66667V4.93333C7.27148 3.31083 7.27148 2 10.2048 2H11.6715C14.6048 2 14.6048 3.31083 14.6048 4.93333V5.66667" stroke="#CEC9D9" stroke-width="1.2" stroke-miterlimit="10" stroke-linecap="round" stroke-linejoin="round"/>
<path d="M12.7716 12.0837V13.0003C12.7716 13.0095 12.7716 13.0095 12.7716 13.0187C12.7716 14.0178 12.7625 14.8337 10.9383 14.8337C9.12331 14.8337 9.10498 14.027 9.10498 13.0278V12.0837C9.10498 11.167 9.10498 11.167 10.0216 11.167H11.855C12.7716 11.167 12.7716 11.167 12.7716 12.0837Z" stroke="#CEC9D9" stroke-width="1.2" stroke-miterlimit="10" stroke-linecap="round" stroke-linejoin="round"/>
<path d="M19.784 10.25C17.6665 11.79 15.2465 12.7067 12.7715 13.0183" stroke="#CEC9D9" stroke-width="1.2" stroke-miterlimit="10" stroke-linecap="round" stroke-linejoin="round"/>
<path d="M2.33984 10.4976C4.40234 11.9092 6.73068 12.7617 9.10484 13.0276" stroke="#CEC9D9" stroke-width="1.2" stroke-miterlimit="10" stroke-linecap="round" stroke-linejoin="round"/>
</svg>
