<svg width="22" height="22" viewBox="0 0 22 22" fill="none" xmlns="http://www.w3.org/2000/svg">
<path d="M16.5 17.2883H15.8033C15.07 17.2883 14.3733 17.5725 13.86 18.0858L12.2925 19.635C11.5775 20.3408 10.4133 20.3408 9.69835 19.635L8.13083 18.0858C7.6175 17.5725 6.91167 17.2883 6.1875 17.2883H5.5C3.97833 17.2883 2.75 16.0692 2.75 14.5659V4.565C2.75 3.06167 3.97833 1.84253 5.5 1.84253H16.5C18.0217 1.84253 19.25 3.06167 19.25 4.565V14.5659C19.25 16.06 18.0217 17.2883 16.5 17.2883Z" stroke="#CEC9D9" stroke-width="1.2" stroke-miterlimit="10" stroke-linecap="round" stroke-linejoin="round"/>
<path d="M11 9.16666C12.1796 9.16666 13.1358 8.2104 13.1358 7.03081C13.1358 5.85122 12.1796 4.89502 11 4.89502C9.8204 4.89502 8.86414 5.85122 8.86414 7.03081C8.86414 8.2104 9.8204 9.16666 11 9.16666Z" stroke="#CEC9D9" stroke-width="1.2" stroke-linecap="round" stroke-linejoin="round"/>
<path d="M14.6666 14.355C14.6666 12.705 13.0258 11.3667 11 11.3667C8.97415 11.3667 7.33331 12.705 7.33331 14.355" stroke="#CEC9D9" stroke-width="1.2" stroke-linecap="round" stroke-linejoin="round"/>
</svg>
