<svg width="22" height="22" viewBox="0 0 22 22" fill="none" xmlns="http://www.w3.org/2000/svg">
<path d="M15.5833 12.2832V15.0332C15.5833 18.6998 14.1166 20.1665 10.4499 20.1665H6.96658C3.29992 20.1665 1.83325 18.6998 1.83325 15.0332V11.5498C1.83325 7.88317 3.29992 6.4165 6.96658 6.4165H9.71658" stroke="#CEC9D9" stroke-width="1.2" stroke-linecap="round" stroke-linejoin="round"/>
<path d="M15.5833 12.2832H12.65C10.45 12.2832 9.71667 11.5498 9.71667 9.34984V6.4165L15.5833 12.2832Z" stroke="#CEC9D9" stroke-width="1.2" stroke-linecap="round" stroke-linejoin="round"/>
<path d="M10.6333 1.8335H14.3" stroke="#CEC9D9" stroke-width="1.2" stroke-linecap="round" stroke-linejoin="round"/>
<path d="M6.41663 4.5835C6.41663 3.06183 7.64496 1.8335 9.16663 1.8335H11.5683" stroke="#CEC9D9" stroke-width="1.2" stroke-linecap="round" stroke-linejoin="round"/>
<path d="M20.1665 7.33325V13.0074C20.1665 14.4283 19.0115 15.5833 17.5907 15.5833" stroke="#CEC9D9" stroke-width="1.2" stroke-linecap="round" stroke-linejoin="round"/>
<path d="M20.1666 7.3335H17.4166C15.3541 7.3335 14.6666 6.646 14.6666 4.5835V1.8335L20.1666 7.3335Z" stroke="#CEC9D9" stroke-width="1.2" stroke-linecap="round" stroke-linejoin="round"/>
</svg>