<svg width="28" height="28" viewBox="0 0 28 28" fill="none" xmlns="http://www.w3.org/2000/svg">
<path fill-rule="evenodd" clip-rule="evenodd" d="M0.909912 16.604V20.979C0.909912 23.3957 2.86816 25.354 5.28491 25.354H22.7849C25.2017 25.354 27.1599 23.3957 27.1599 20.979V17.374C27.1599 16.891 26.7679 16.499 26.2849 16.499C25.8019 16.499 25.4099 16.891 25.4099 17.374V20.979C25.4099 22.4297 24.2339 23.604 22.7849 23.604H5.28491C3.83416 23.604 2.65991 22.4297 2.65991 20.979V16.604C2.65991 16.121 2.26791 15.729 1.78491 15.729C1.30191 15.729 0.909912 16.121 0.909912 16.604ZM13.1617 17.2253L10.9409 15.0045C10.5997 14.6632 10.0449 14.6632 9.70366 15.0045C9.36241 15.3457 9.36241 15.9005 9.70366 16.2417L13.4154 19.9535C13.7584 20.2965 14.3114 20.2965 14.6527 19.9535L18.3662 16.2417C18.7074 15.9005 18.7074 15.3457 18.3662 15.0045C18.0249 14.6632 17.4702 14.6632 17.1289 15.0045L14.9117 17.2218L14.9239 3.521C14.9257 3.038 14.5337 2.646 14.0507 2.646C13.5677 2.646 13.1757 3.03625 13.1739 3.51925L13.1617 17.2253Z" fill="#CE1E19"/>
</svg>