<svg width="26" height="26" viewBox="0 0 26 26" fill="none" xmlns="http://www.w3.org/2000/svg">
<path d="M7.04166 23.8333V16.25" stroke="white" stroke-width="1.2" stroke-miterlimit="10" stroke-linecap="round" stroke-linejoin="round"/>
<path d="M7.04166 5.41675V2.16675" stroke="white" stroke-width="1.2" stroke-miterlimit="10" stroke-linecap="round" stroke-linejoin="round"/>
<path d="M18.9583 23.8333V20.5833" stroke="white" stroke-width="1.2" stroke-miterlimit="10" stroke-linecap="round" stroke-linejoin="round"/>
<path d="M18.9583 9.75008V2.16675" stroke="white" stroke-width="1.2" stroke-miterlimit="10" stroke-linecap="round" stroke-linejoin="round"/>
<path d="M10.2917 7.58341V14.0834C10.2917 15.2751 9.74999 16.2501 8.12499 16.2501H5.95832C4.33332 16.2501 3.79166 15.2751 3.79166 14.0834V7.58341C3.79166 6.39175 4.33332 5.41675 5.95832 5.41675H8.12499C9.74999 5.41675 10.2917 6.39175 10.2917 7.58341Z" stroke="white" stroke-width="1.2" stroke-miterlimit="10" stroke-linecap="round" stroke-linejoin="round"/>
<path d="M22.2083 11.9167V18.4167C22.2083 19.6083 21.6667 20.5833 20.0417 20.5833H17.875C16.25 20.5833 15.7083 19.6083 15.7083 18.4167V11.9167C15.7083 10.725 16.25 9.75 17.875 9.75H20.0417C21.6667 9.75 22.2083 10.725 22.2083 11.9167Z" stroke="white" stroke-width="1.2" stroke-miterlimit="10" stroke-linecap="round" stroke-linejoin="round"/>
</svg>
