<svg width="18" height="18" viewBox="0 0 18 18" fill="none" xmlns="http://www.w3.org/2000/svg">
<path d="M12.1425 1.74756H5.8575C3.1275 1.74756 1.5 3.38256 1.5 6.11256V12.3901C1.5 15.1201 3.1275 16.7476 5.8575 16.7476H12.135C14.865 16.7476 16.4925 15.1201 16.4925 12.3901V6.11256C16.5 3.38256 14.8725 1.74756 12.1425 1.74756ZM8.6775 12.8401C8.6775 13.0651 8.565 13.2676 8.37 13.3876C8.265 13.4551 8.1525 13.4851 8.0325 13.4851C7.935 13.4851 7.8375 13.4626 7.74 13.4176L5.115 12.1051C4.74 11.9101 4.5 11.5276 4.5 11.1001V8.61756C4.5 8.39256 4.6125 8.19006 4.8075 8.07006C5.0025 7.95006 5.235 7.94256 5.4375 8.04006L8.0625 9.35256C8.445 9.54756 8.685 9.93006 8.685 10.3576V12.8401H8.6775ZM8.52 8.82756L5.7 7.30506C5.4975 7.19256 5.37 6.97506 5.37 6.72756C5.37 6.48756 5.4975 6.26256 5.7 6.15006L8.52 4.62756C8.82 4.47006 9.1725 4.47006 9.4725 4.62756L12.2925 6.15006C12.495 6.26256 12.6225 6.48006 12.6225 6.72756C12.6225 6.97506 12.495 7.19256 12.2925 7.30506L9.4725 8.82756C9.3225 8.91006 9.1575 8.94756 8.9925 8.94756C8.8275 8.94756 8.67 8.91006 8.52 8.82756ZM13.5 11.1001C13.5 11.5276 13.26 11.9176 12.8775 12.1051L10.2525 13.4176C10.1625 13.4626 10.065 13.4851 9.96 13.4851C9.84 13.4851 9.7275 13.4551 9.6225 13.3876C9.4275 13.2676 9.315 13.0651 9.315 12.8401V10.3576C9.315 9.93006 9.555 9.54006 9.9375 9.35256L12.5625 8.04006C12.765 7.94256 12.9975 7.95006 13.1925 8.07006C13.3875 8.19006 13.5 8.39256 13.5 8.61756V11.1001Z" fill="#201D2A"/>
</svg>
