<svg width="18" height="18" viewBox="0 0 18 18" fill="none" xmlns="http://www.w3.org/2000/svg">
<path d="M13.1475 5.8275C13.095 5.82 13.0425 5.82 12.99 5.8275C11.8275 5.79 10.905 4.8375 10.905 3.6675C10.905 2.475 11.8725 1.5 13.0725 1.5C14.265 1.5 15.24 2.4675 15.24 3.6675C15.2325 4.8375 14.31 5.79 13.1475 5.8275Z" fill="#201D2A"/>
<path d="M15.5925 11.0251C14.7525 11.5876 13.575 11.7976 12.4875 11.6551C12.7725 11.0401 12.9225 10.3576 12.93 9.63756C12.93 8.88756 12.765 8.17506 12.45 7.55256C13.56 7.40256 14.7375 7.61256 15.585 8.17506C16.77 8.95506 16.77 10.2376 15.5925 11.0251Z" fill="#201D2A"/>
<path d="M4.83 5.8275C4.8825 5.82 4.935 5.82 4.9875 5.8275C6.15 5.79 7.0725 4.8375 7.0725 3.6675C7.0725 2.4675 6.105 1.5 4.905 1.5C3.7125 1.5 2.745 2.4675 2.745 3.6675C2.745 4.8375 3.6675 5.79 4.83 5.8275Z" fill="#201D2A"/>
<path d="M4.9125 9.63746C4.9125 10.365 5.07 11.055 5.355 11.6775C4.2975 11.79 3.195 11.565 2.385 11.0325C1.2 10.245 1.2 8.96246 2.385 8.17496C3.1875 7.63496 4.32 7.41746 5.385 7.53746C5.0775 8.16746 4.9125 8.87996 4.9125 9.63746Z" fill="#201D2A"/>
<path d="M9.09 11.9025C9.03 11.895 8.9625 11.895 8.895 11.9025C7.515 11.8575 6.4125 10.725 6.4125 9.33C6.42 7.905 7.5675 6.75 9 6.75C10.425 6.75 11.58 7.905 11.58 9.33C11.5725 10.725 10.4775 11.8575 9.09 11.9025Z" fill="#201D2A"/>
<path d="M6.6525 13.455C5.52 14.2125 5.52 15.4575 6.6525 16.2075C7.9425 17.07 10.0575 17.07 11.3475 16.2075C12.48 15.45 12.48 14.205 11.3475 13.455C10.065 12.5925 7.95 12.5925 6.6525 13.455Z" fill="#201D2A"/>
</svg>
