<svg width="12" height="13" viewBox="0 0 12 13" fill="none" xmlns="http://www.w3.org/2000/svg">
<path d="M5.37002 0.528025C4.83202 0.602025 4.46002 0.686025 4.04202 0.830025C1.97402 1.53802 0.42002 3.37202 0.0820199 5.50203C-0.13198 6.84203 0.0760199 8.13203 0.69002 9.29403C1.28402 10.416 2.20802 11.32 3.32802 11.87C3.96402 12.182 4.55202 12.36 5.25402 12.454C5.61202 12.5 6.39602 12.5 6.74002 12.454C7.70602 12.32 8.52402 12.014 9.30002 11.496C9.66802 11.252 9.86602 11.092 10.178 10.79C11.144 9.85203 11.728 8.70403 11.942 7.32002C12.008 6.90002 12.008 6.10203 11.944 5.68003C11.608 3.48602 10.206 1.71402 8.17602 0.912024C7.71002 0.728024 7.12602 0.584024 6.66802 0.540025C6.29402 0.504025 5.59402 0.498025 5.37002 0.528025ZM7.72002 2.68602C8.85202 3.00803 9.59002 4.16203 9.39002 5.30403C9.31002 5.76003 9.07802 6.20403 8.74002 6.54003C8.45602 6.82603 8.09002 7.03802 7.70602 7.14003C7.50602 7.19403 7.02602 7.21803 6.10802 7.22003C5.73202 7.22003 5.39602 7.22603 5.36202 7.23203L5.30002 7.24403V7.58203V7.92003H6.41002H7.52202L7.63802 7.98003C7.76802 8.04402 7.88602 8.16803 7.92202 8.27402C7.95202 8.36602 7.93602 8.57203 7.89202 8.66203C7.84802 8.75403 7.73802 8.86603 7.62802 8.93003L7.54202 8.98003H6.91602C6.57202 8.98003 6.06802 8.98603 5.79802 8.99403L5.30402 9.00603L5.29402 9.47803C5.28802 9.75003 5.27402 9.98203 5.26002 10.026C5.24802 10.068 5.20602 10.138 5.16802 10.18C4.95802 10.412 4.59002 10.424 4.39802 10.204C4.26402 10.052 4.25202 10 4.24402 9.47603L4.23602 9.00403L4.02202 8.99003C3.70402 8.97203 3.61402 8.94803 3.50202 8.86003C3.19002 8.61203 3.24802 8.15803 3.61602 7.97603C3.69802 7.93603 3.74602 7.93003 3.97602 7.92403L4.24002 7.91603V7.58003V7.24203L4.17602 7.23203C4.14002 7.22603 4.03002 7.21803 3.93002 7.21203C3.67402 7.19603 3.56602 7.16003 3.45402 7.04803C3.25402 6.85003 3.25402 6.50603 3.45402 6.31603C3.57002 6.20603 3.70802 6.16202 3.98602 6.14803L4.24002 6.13403V4.86203C4.24202 3.52802 4.25802 3.00002 4.29802 2.92202C4.33802 2.84803 4.46202 2.72003 4.52802 2.68602C4.56202 2.66803 4.63402 2.64802 4.69002 2.64003C4.74402 2.63002 5.40602 2.62603 6.16002 2.62803L7.53002 2.63202L7.72002 2.68602Z" fill="#201D2A"/>
<path d="M5.50005 3.67414C5.39805 3.68014 5.32605 3.69214 5.31605 3.70614C5.30805 3.72014 5.30005 4.27214 5.30005 4.93414V6.14014H6.28605C7.37605 6.14014 7.44405 6.13414 7.66605 6.01614C7.74005 5.97614 7.85605 5.88614 7.95205 5.79014C8.23205 5.51414 8.34005 5.22014 8.31405 4.80414C8.29205 4.47014 8.17405 4.23014 7.91805 3.99214C7.74405 3.83214 7.53205 3.72414 7.34605 3.70014C7.20405 3.68214 5.79205 3.66214 5.50005 3.67414Z" fill="#201D2A"/>
</svg>
