<svg width="22" height="22" viewBox="0 0 22 22" fill="none" xmlns="http://www.w3.org/2000/svg">
<path d="M19.8642 13.1083L19.4975 17.6916C19.36 19.0941 19.25 20.1666 16.7658 20.1666H5.23416C2.74999 20.1666 2.63999 19.0941 2.50249 17.6916L2.13582 13.1083C2.06249 12.3474 2.30082 11.6416 2.73166 11.1008C2.74082 11.0916 2.74082 11.0916 2.74999 11.0824C3.25416 10.4683 4.01499 10.0833 4.86749 10.0833H17.1325C17.985 10.0833 18.7367 10.4683 19.2317 11.0641C19.2408 11.0733 19.25 11.0824 19.25 11.0916C19.6992 11.6324 19.9467 12.3383 19.8642 13.1083Z" stroke="#CEC9D9" stroke-width="1.2" stroke-linecap="round" stroke-linejoin="round" stroke-miterlimit="10"/>
<path d="M3.20837 10.4775V5.75667C3.20837 2.64001 3.98754 1.86084 7.10421 1.86084H8.26837C9.43254 1.86084 9.69837 2.20917 10.1384 2.79584L11.3025 4.35417C11.5959 4.73917 11.77 4.97751 12.5492 4.97751H14.8867C18.0034 4.97751 18.7825 5.75667 18.7825 8.87334V10.5142" stroke="#CEC9D9" stroke-width="1.2" stroke-miterlimit="10" stroke-linecap="round" stroke-linejoin="round"/>
<path d="M8.64417 15.5833H13.3558" stroke="#CEC9D9" stroke-width="1.2" stroke-miterlimit="10" stroke-linecap="round" stroke-linejoin="round"/>
</svg>
