<svg width="20" height="20" viewBox="0 0 20 20" fill="none" xmlns="http://www.w3.org/2000/svg">
<path fill-rule="evenodd" clip-rule="evenodd" d="M14.1667 1.66675C14.3968 1.66675 14.5834 1.8533 14.5834 2.08341L14.5834 17.0834C14.5834 17.3135 14.3968 17.5001 14.1667 17.5001C13.9366 17.5001 13.75 17.3135 13.75 17.0834L13.75 2.08341C13.75 1.8533 13.9366 1.66675 14.1667 1.66675Z" fill="#201D2A" stroke="#201D2A" stroke-width="0.2" stroke-miterlimit="90" stroke-linecap="round"/>
<path fill-rule="evenodd" clip-rule="evenodd" d="M18.1954 13.4402C18.3665 13.5942 18.3804 13.8576 18.2264 14.0287L14.4764 18.1953C14.3974 18.2831 14.2848 18.3333 14.1667 18.3333C14.0486 18.3333 13.936 18.2831 13.857 18.1953L10.107 14.0287C9.95306 13.8576 9.96692 13.5942 10.138 13.4402C10.309 13.2863 10.5725 13.3001 10.7264 13.4712L14.1667 17.2937L17.607 13.4712C17.7609 13.3001 18.0244 13.2863 18.1954 13.4402Z" fill="#201D2A" stroke="#201D2A" stroke-width="0.2" stroke-miterlimit="1" stroke-linecap="round" stroke-linejoin="round"/>
<path fill-rule="evenodd" clip-rule="evenodd" d="M5.83333 2.5C6.06345 2.5 6.25 2.68655 6.25 2.91667L6.25 17.9167C6.25 18.1468 6.06345 18.3333 5.83333 18.3333C5.60321 18.3333 5.41667 18.1468 5.41667 17.9167L5.41667 2.91667C5.41667 2.68655 5.60321 2.5 5.83333 2.5Z" fill="#201D2A" stroke="#201D2A" stroke-width="0.2" stroke-miterlimit="90" stroke-linecap="round"/>
<path fill-rule="evenodd" clip-rule="evenodd" d="M9.86206 6.55979C9.69102 6.71373 9.42756 6.69986 9.27362 6.52882L5.83333 2.70627L2.39303 6.52882C2.23909 6.69986 1.97564 6.71373 1.80459 6.55979C1.63355 6.40585 1.61968 6.14239 1.77362 5.97135L5.52362 1.80468C5.60264 1.71688 5.71521 1.66675 5.83333 1.66675C5.95145 1.66675 6.06402 1.71688 6.14304 1.80468L9.89304 5.97135C10.047 6.14239 10.0331 6.40585 9.86206 6.55979Z" fill="#201D2A" stroke="#201D2A" stroke-width="0.2" stroke-miterlimit="1" stroke-linecap="round" stroke-linejoin="round"/>
</svg>
