<svg width="22" height="22" viewBox="0 0 22 22" fill="none" xmlns="http://www.w3.org/2000/svg">
<path d="M10.9999 17.4166C14.5437 17.4166 17.4166 14.5437 17.4166 10.9999C17.4166 7.45609 14.5437 4.58325 10.9999 4.58325C7.45609 4.58325 4.58325 7.45609 4.58325 10.9999C4.58325 14.5437 7.45609 17.4166 10.9999 17.4166Z" fill="#292D32"/>
<path d="M11.0001 21.0467C10.4959 21.0467 10.0834 20.6709 10.0834 20.1667V20.0934C10.0834 19.5892 10.4959 19.1767 11.0001 19.1767C11.5042 19.1767 11.9167 19.5892 11.9167 20.0934C11.9167 20.5976 11.5042 21.0467 11.0001 21.0467ZM17.5451 18.4617C17.3067 18.4617 17.0776 18.3701 16.8942 18.1959L16.7751 18.0767C16.4176 17.7192 16.4176 17.1417 16.7751 16.7842C17.1326 16.4267 17.7101 16.4267 18.0676 16.7842L18.1867 16.9034C18.5442 17.2609 18.5442 17.8384 18.1867 18.1959C18.0126 18.3701 17.7834 18.4617 17.5451 18.4617ZM4.45508 18.4617C4.21675 18.4617 3.98758 18.3701 3.80425 18.1959C3.44675 17.8384 3.44675 17.2609 3.80425 16.9034L3.92341 16.7842C4.28092 16.4267 4.85841 16.4267 5.21591 16.7842C5.57341 17.1417 5.57341 17.7192 5.21591 18.0767L5.09675 18.1959C4.92258 18.3701 4.68425 18.4617 4.45508 18.4617ZM20.1667 11.9167H20.0934C19.5892 11.9167 19.1767 11.5042 19.1767 11.0001C19.1767 10.4959 19.5892 10.0834 20.0934 10.0834C20.5976 10.0834 21.0467 10.4959 21.0467 11.0001C21.0467 11.5042 20.6709 11.9167 20.1667 11.9167ZM1.90675 11.9167H1.83341C1.32925 11.9167 0.916748 11.5042 0.916748 11.0001C0.916748 10.4959 1.32925 10.0834 1.83341 10.0834C2.33758 10.0834 2.78675 10.4959 2.78675 11.0001C2.78675 11.5042 2.41091 11.9167 1.90675 11.9167ZM17.4259 5.49091C17.1876 5.49091 16.9584 5.39925 16.7751 5.22508C16.4176 4.86758 16.4176 4.29008 16.7751 3.93258L16.8942 3.81341C17.2517 3.45591 17.8292 3.45591 18.1867 3.81341C18.5442 4.17091 18.5442 4.74841 18.1867 5.10592L18.0676 5.22508C17.8934 5.39925 17.6642 5.49091 17.4259 5.49091ZM4.57425 5.49091C4.33591 5.49091 4.10675 5.39925 3.92341 5.22508L3.80425 5.09675C3.44675 4.73925 3.44675 4.16175 3.80425 3.80425C4.16175 3.44675 4.73925 3.44675 5.09675 3.80425L5.21591 3.92341C5.57341 4.28092 5.57341 4.85841 5.21591 5.21591C5.04175 5.39925 4.80341 5.49091 4.57425 5.49091ZM11.0001 2.78675C10.4959 2.78675 10.0834 2.41091 10.0834 1.90675V1.83341C10.0834 1.32925 10.4959 0.916748 11.0001 0.916748C11.5042 0.916748 11.9167 1.32925 11.9167 1.83341C11.9167 2.33758 11.5042 2.78675 11.0001 2.78675Z" fill="#292D32"/>
</svg>
