<svg width="12" height="13" viewBox="0 0 12 13" fill="none" xmlns="http://www.w3.org/2000/svg">
<path d="M9.47544 12.0005H9.45894C9.20344 11.9965 8.96044 11.888 8.78694 11.7005L7.82795 10.76C7.63595 10.5615 7.64045 10.245 7.83895 10.053C7.83945 10.0525 7.83995 10.052 7.84045 10.0515C8.03895 9.86095 8.35394 9.86645 8.54544 10.0635L9.47594 10.975L11.1464 9.30445C11.3414 9.10945 11.6584 9.10945 11.8534 9.30445C12.0484 9.49945 12.0484 9.81645 11.8534 10.0115L10.1429 11.722C9.96694 11.9005 9.72644 12.001 9.47544 12.0005Z" fill="#201D2A"/>
<path d="M7.01737 10.5078C7.01537 8.85926 8.34987 7.52126 9.99787 7.51876C10.6394 7.51776 11.2644 7.72376 11.7794 8.10626C12.6659 4.91376 10.7964 1.60726 7.60437 0.720761C4.41237 -0.165739 1.10637 1.70326 0.219871 4.89576C-0.666629 8.08826 1.20287 11.3953 4.39487 12.2818C5.44487 12.5733 6.55437 12.5733 7.60437 12.2818C7.22337 11.7688 7.01737 11.1468 7.01737 10.5078ZM6.49987 6.51126C6.49987 6.64426 6.44687 6.77126 6.35287 6.86526L4.85037 8.36826C4.65137 8.56026 4.33437 8.55476 4.14237 8.35576C3.95487 8.16176 3.95487 7.85376 4.14237 7.65976L5.49837 6.30376V4.00676C5.49837 3.73026 5.72237 3.50576 5.99937 3.50576C6.27587 3.50576 6.49987 3.73026 6.49987 4.00676V6.51126Z" fill="#201D2A"/>
</svg>
