<svg width="16" height="18" viewBox="0 0 16 18" fill="none" xmlns="http://www.w3.org/2000/svg">
<path d="M15 4.11117H12.2318C11.7294 4.11117 11.2845 3.79072 11.1251 3.31316L10.8793 2.57505C10.7199 2.09827 10.2757 1.77783 9.77252 1.77783H6.22662C5.72417 1.77783 5.2793 2.09827 5.11986 2.57505L4.87486 3.31316C4.71541 3.79072 4.27054 4.11117 3.7681 4.11117H0.999973C0.785306 4.11117 0.611084 4.28539 0.611084 4.50005C0.611084 4.71472 0.785306 4.88894 0.999973 4.88894H2.19151L2.79977 14.0146C2.89466 15.4395 4.08777 16.5556 5.51577 16.5556H10.4834C11.9114 16.5556 13.1045 15.4395 13.1994 14.0146L13.8076 4.88894H15C15.2146 4.88894 15.3889 4.71472 15.3889 4.50005C15.3889 4.28539 15.2146 4.11117 15 4.11117ZM5.85795 2.82162C5.91084 2.66217 6.05942 2.55561 6.22742 2.55561H9.77333C9.94055 2.55561 10.0891 2.66217 10.142 2.82162L10.3878 3.55971C10.4554 3.76193 10.5542 3.94705 10.6771 4.11117H5.32285C5.44574 3.94705 5.54533 3.76193 5.613 3.55971L5.85795 2.82162ZM12.424 13.9625C12.3563 14.9806 11.5038 15.777 10.4842 15.777H5.51653C4.49609 15.777 3.64441 14.9798 3.57674 13.9625L2.97162 4.88816H3.7681C3.85132 4.88816 3.93295 4.87883 4.01462 4.86872C4.04651 4.87728 4.07684 4.88816 4.11184 4.88816H11.8896C11.9238 4.88816 11.955 4.87728 11.9868 4.86872C12.0677 4.87883 12.1494 4.88816 12.2334 4.88816H13.0298L12.424 13.9625ZM9.94442 8.38894V12.2778C9.94442 12.4925 9.7702 12.6667 9.55553 12.6667C9.34086 12.6667 9.16664 12.4925 9.16664 12.2778V8.38894C9.16664 8.17428 9.34086 8.00005 9.55553 8.00005C9.7702 8.00005 9.94442 8.1735 9.94442 8.38894ZM6.83331 8.38894V12.2778C6.83331 12.4925 6.65908 12.6667 6.44442 12.6667C6.22975 12.6667 6.05553 12.4925 6.05553 12.2778V8.38894C6.05553 8.17428 6.22975 8.00005 6.44442 8.00005C6.65908 8.00005 6.83331 8.1735 6.83331 8.38894Z" fill="#201D2A"/>
</svg>
